<svg width="16" height="16" viewBox="0 0 16 16" fill="none" xmlns="http://www.w3.org/2000/svg">
<rect width="16" height="16" fill="#EEEEEE"/>
<path d="M3.82123 10.0881C3.56918 9.72259 3.44866 9.28533 3.47869 8.84534V7.04942C3.4469 6.60618 3.5656 6.16508 3.81634 5.79467C4.04307 5.50892 4.43047 5.36684 4.97854 5.36844C5.5266 5.37003 5.89769 5.49535 6.0918 5.74438C6.32848 6.05299 6.44396 6.43456 6.41721 6.81954V7.24098H5.40426V6.78362C5.4029 6.66328 5.39227 6.54321 5.37246 6.42444C5.36021 6.33845 5.31987 6.25865 5.25746 6.19695C5.21894 6.16462 5.17421 6.14013 5.12589 6.12492C5.07758 6.1097 5.02665 6.10407 4.97609 6.10836C4.90347 6.09775 4.82928 6.1093 4.76361 6.14143C4.69794 6.17357 4.64398 6.22473 4.60908 6.28795C4.54475 6.45611 4.51643 6.63543 4.52589 6.81475V9.09437C4.51473 9.27488 4.54743 9.45542 4.62131 9.62117C4.65661 9.68097 4.709 9.72937 4.77203 9.76043C4.83506 9.79148 4.90598 9.80384 4.97609 9.79598C5.04498 9.80551 5.11518 9.79351 5.17669 9.76169C5.23821 9.72987 5.28788 9.67986 5.31863 9.61878C5.37781 9.4503 5.40356 9.27231 5.39448 9.09437V8.61546H6.40742V9.02972C6.43724 9.42037 6.33118 9.80942 6.10648 10.1336C5.89116 10.397 5.51926 10.5263 4.99077 10.5263C4.46228 10.5263 4.04878 10.3826 3.82123 10.0881Z" fill="#111111"/>
<path d="M7.7334 5.47369H8.90555L9.89471 10.4211H8.92039L8.74481 9.32792H7.92381L7.72598 10.414H6.73682L7.7334 5.47369ZM8.636 8.70597L8.32442 6.7176L8.01531 8.70597H8.636Z" fill="#111111"/>
<path d="M10.5848 6.21921H9.78943V5.47369H12.421V6.21921H11.6355V10.4211H10.5823L10.5848 6.21921Z" fill="#111111"/>
</svg>
